<svg xmlns="http://www.w3.org/2000/svg" viewBox="0 0 320 240" width="320" height="240" role="img" aria-label="KALTSTART Trio Multi-Split 3× 9000"><defs><linearGradient id="g-kaltstart-trio-multisplit-3x9" x1="0" y1="0" x2="1" y2="1"><stop offset="0" stop-color="#b0acd7"/><stop offset="1" stop-color="#5148a8"/></linearGradient><linearGradient id="g-kaltstart-trio-multisplit-3x9-b" x1="0" y1="0" x2="0" y2="1"><stop offset="0" stop-color="#ffffff"/><stop offset="1" stop-color="#e9f1f7"/></linearGradient></defs><ellipse cx="160" cy="212" rx="112" ry="14" fill="#322c68" opacity=".13"/><g><rect x="40" y="52" width="240" height="72" rx="20" fill="url(#g-kaltstart-trio-multisplit-3x9-b)" stroke="#322c68" stroke-opacity=".25"/><path d="M40 100h240v4a20 20 0 0 1-20 20H60a20 20 0 0 1-20-20z" fill="url(#g-kaltstart-trio-multisplit-3x9)"/><rect x="60" y="106" width="200" height="7" rx="3.5" fill="#0c1a26" opacity=".22"/><circle cx="256" cy="70" r="4" fill="#5148a8"/><rect x="62" y="66" width="46" height="5" rx="2.5" fill="#322c68" opacity=".28"/></g><g stroke="#5148a8" stroke-width="3" stroke-linecap="round" fill="none" opacity=".55"><path d="M96 140c14 10 30 10 44 0"/><path d="M140 156c14 10 30 10 44 0"/><path d="M184 140c14 10 30 10 44 0"/></g><g opacity=".9"><rect x="228" y="150" width="66" height="48" rx="8" fill="#ffffff" stroke="#322c68" stroke-opacity=".3"/><circle cx="261" cy="174" r="16" fill="none" stroke="#5148a8" stroke-width="2.5"/><path d="M261 160v28M247 174h28" stroke="#5148a8" stroke-width="2.5" stroke-linecap="round"/></g><rect x="40" y="20" width="150" height="24" rx="10" fill="url(#g-kaltstart-trio-multisplit-3x9-b)" stroke="#322c68" stroke-opacity=".25"/></svg>