<svg xmlns="http://www.w3.org/2000/svg" viewBox="0 0 320 240" width="320" height="240" role="img" aria-label="KALTSTART Frost QC9 Quick-Connect"><defs><linearGradient id="g-kaltstart-frost-qc9-quick-connect" x1="0" y1="0" x2="1" y2="1"><stop offset="0" stop-color="#9fdee6"/><stop offset="1" stop-color="#2bb7c9"/></linearGradient><linearGradient id="g-kaltstart-frost-qc9-quick-connect-b" x1="0" y1="0" x2="0" y2="1"><stop offset="0" stop-color="#ffffff"/><stop offset="1" stop-color="#e9f1f7"/></linearGradient></defs><ellipse cx="160" cy="212" rx="112" ry="14" fill="#1a717c" opacity=".13"/><g><rect x="40" y="52" width="240" height="72" rx="20" fill="url(#g-kaltstart-frost-qc9-quick-connect-b)" stroke="#1a717c" stroke-opacity=".25"/><path d="M40 100h240v4a20 20 0 0 1-20 20H60a20 20 0 0 1-20-20z" fill="url(#g-kaltstart-frost-qc9-quick-connect)"/><rect x="60" y="106" width="200" height="7" rx="3.5" fill="#0c1a26" opacity=".22"/><circle cx="256" cy="70" r="4" fill="#2bb7c9"/><rect x="62" y="66" width="46" height="5" rx="2.5" fill="#1a717c" opacity=".28"/></g><g stroke="#2bb7c9" stroke-width="3" stroke-linecap="round" fill="none" opacity=".55"><path d="M96 140c14 10 30 10 44 0"/><path d="M140 156c14 10 30 10 44 0"/><path d="M184 140c14 10 30 10 44 0"/></g><g opacity=".9"><rect x="228" y="150" width="66" height="48" rx="8" fill="#ffffff" stroke="#1a717c" stroke-opacity=".3"/><circle cx="261" cy="174" r="16" fill="none" stroke="#2bb7c9" stroke-width="2.5"/><path d="M261 160v28M247 174h28" stroke="#2bb7c9" stroke-width="2.5" stroke-linecap="round"/></g></svg>